# xmcd
#
# Track frame offsets:
#	150
#	15245
#	29391
#	42434
#	58269
#	72412
#	87551
#	99156
#	114174
#	127409
#	140433
#	156394
#	170804
#	187917
#
# Disc length: 2687 seconds
#
# Revision: 0
# Processed by: cddbd v1.5.2PL0 Copyright (c) Steve Scherf et al.
# Submitted via: dBpowerAMP V4.0
#
DISCID=c40a7d0e
DTITLE=Various Artist - Sveriges Bästa Dansband 2007-09
DYEAR=2007
DGENRE=Dance Hall
TTITLE0=Schytts - Linda sa
TTITLE1=Carina Jaarnek - Alla minnen
TTITLE2=Svänzons - Bilderna av dig
TTITLE3=Perikles - Nu kommer sommaren
TTITLE4=Lasse Stefanz - Kärlekens sång
TTITLE5=Claes Löverens - Du är mitt solsken
TTITLE6=Madde and Grabbarna - Romeo and Julia
TTITLE7=Wizex med Lena - Det handlar om dig
TTITLE8=Towe Eiderbergs - Ring mig
TTITLE9=Sven-Ingvars - Finns det nån annan i ditt liv
TTITLE10=Mats Cedermarker - I blåst på österlen
TTITLE11=Fame - You wanna be rock'n roll but you're not
TTITLE12=Hjältarna - Att vara kär
TTITLE13=Grönwalls med Camilla Lindén - Du har rört vid mitt hlärta
EXTD=
EXTT0=
EXTT1=
EXTT2=
EXTT3=
EXTT4=
EXTT5=
EXTT6=
EXTT7=
EXTT8=
EXTT9=
EXTT10=
EXTT11=
EXTT12=
EXTT13=
PLAYORDER=
